<?xml version="1.0" standalone="no"?>
<!DOCTYPE svg PUBLIC "-//W3C//DTD SVG 20010904//EN"
 "http://www.w3.org/TR/2001/REC-SVG-20010904/DTD/svg10.dtd">
<svg version="1.0" xmlns="http://www.w3.org/2000/svg"
 width="171.000000pt" height="171.000000pt" viewBox="0 0 171.000000 171.000000"
 preserveAspectRatio="xMidYMid meet">
<metadata>
Created by potrace 1.11, written by Peter Selinger 2001-2013
</metadata>
<g transform="translate(0.000000,171.000000) scale(0.100000,-0.100000)"
fill="#000000" stroke="none">
<path d="M668 1679 c-498 -119 -776 -632 -605 -1112 l22 -62 110 2 c127 2 294
11 346 18 20 3 54 7 75 10 158 17 279 66 331 133 69 91 42 136 -172 278 -159
106 -169 114 -210 167 -59 79 -31 197 66 266 75 55 252 107 424 126 33 4 71 8
85 10 27 4 176 18 199 18 48 1 -182 117 -284 143 -101 26 -287 27 -387 3z"/>
<path d="M1398 1485 c-3 -3 -29 -7 -58 -10 -29 -2 -60 -7 -69 -9 -9 -3 -36 -8
-61 -11 -24 -4 -47 -8 -50 -10 -3 -2 -23 -6 -45 -9 -85 -13 -260 -71 -304
-100 -121 -81 -89 -128 204 -299 205 -119 282 -216 270 -340 -21 -209 -220
-356 -580 -427 -56 -12 -120 -23 -141 -25 -136 -15 -204 -22 -243 -24 -22 -1
-18 -6 30 -42 137 -103 309 -160 484 -162 166 -2 252 17 390 85 496 246 624
903 255 1315 -46 52 -75 75 -82 68z"/>
</g>
</svg>
